<svg width="593" height="319" viewBox="0 0 593 319" fill="none" xmlns="http://www.w3.org/2000/svg">
<path d="M6.51234 121.798V1.64275H31.9163V54.6215H33.5004L76.74 1.64275H107.19L62.6006 55.4429L107.718 121.798H77.3267L44.413 72.3984L31.9163 87.6526V121.798H6.51234Z" fill="black"/>
<path d="M230.668 61.7205C230.668 74.8234 228.185 85.9707 223.217 95.1623C218.289 104.354 211.561 111.375 203.035 116.225C194.547 121.036 185.004 123.441 174.404 123.441C163.726 123.441 154.143 121.016 145.656 116.166C137.168 111.316 130.46 104.295 125.532 95.1036C120.604 85.912 118.14 74.7843 118.14 61.7205C118.14 48.6176 120.604 37.4704 125.532 28.2788C130.46 19.0872 137.168 12.086 145.656 7.27505C154.143 2.42502 163.726 0 174.404 0C185.004 0 194.547 2.42502 203.035 7.27505C211.561 12.086 218.289 19.0872 223.217 28.2788C228.185 37.4704 230.668 48.6176 230.668 61.7205ZM204.912 61.7205C204.912 53.233 203.641 46.0753 201.099 40.2474C198.595 34.4196 195.056 29.9998 190.479 26.9881C185.903 23.9764 180.545 22.4705 174.404 22.4705C168.263 22.4705 162.905 23.9764 158.328 26.9881C153.752 29.9998 150.193 34.4196 147.651 40.2474C145.147 46.0753 143.896 53.233 143.896 61.7205C143.896 70.2081 145.147 77.3658 147.651 83.1937C150.193 89.0215 153.752 93.4413 158.328 96.453C162.905 99.4647 168.263 100.971 174.404 100.971C180.545 100.971 185.903 99.4647 190.479 96.453C195.056 93.4413 198.595 89.0215 201.099 83.1937C203.641 77.3658 204.912 70.2081 204.912 61.7205Z" fill="black"/>
<path d="M321.277 36.1992C320.808 31.4665 318.793 27.7899 315.234 25.1693C311.675 22.5487 306.844 21.2384 300.743 21.2384C296.597 21.2384 293.096 21.8251 290.241 22.9985C287.386 24.1328 285.195 25.7169 283.67 27.7508C282.184 29.7847 281.44 32.0923 281.44 34.6738C281.362 36.825 281.812 38.7025 282.79 40.3061C283.807 41.9097 285.195 43.2983 286.955 44.4716C288.715 45.6059 290.749 46.6033 293.057 47.4638C295.365 48.2852 297.829 48.9892 300.449 49.5759L311.245 52.1574C316.486 53.3308 321.297 54.8953 325.677 56.851C330.058 58.8066 333.852 61.2121 337.059 64.0673C340.267 66.9226 342.75 70.2863 344.51 74.1585C346.31 78.0307 347.229 82.4701 347.268 87.4765C347.229 94.8298 345.351 101.205 341.636 106.603C337.959 111.961 332.639 116.127 325.677 119.1C318.754 122.033 310.404 123.5 300.625 123.5C290.925 123.5 282.477 122.013 275.28 119.041C268.122 116.068 262.529 111.668 258.501 105.84C254.511 99.9732 252.418 92.7177 252.223 84.0737H276.805C277.079 88.1024 278.233 91.4661 280.267 94.1649C282.34 96.8246 285.097 98.8389 288.539 100.208C292.02 101.538 295.951 102.203 300.332 102.203C304.634 102.203 308.37 101.577 311.538 100.325C314.745 99.0736 317.229 97.3331 318.989 95.1036C320.749 92.8742 321.629 90.3123 321.629 87.4179C321.629 84.7191 320.827 82.4505 319.224 80.6122C317.659 78.7739 315.351 77.2093 312.301 75.9186C309.289 74.6279 305.593 73.4545 301.212 72.3984L288.129 69.1129C277.998 66.6488 270 62.7962 264.133 57.555C258.266 52.3138 255.352 45.2539 255.391 36.3752C255.352 29.1002 257.288 22.7443 261.199 17.3076C265.15 11.8708 270.567 7.62707 277.451 4.57624C284.335 1.52541 292.157 0 300.919 0C309.837 0 317.62 1.52541 324.269 4.57624C330.958 7.62707 336.16 11.8708 339.875 17.3076C343.591 22.7443 345.508 29.0415 345.625 36.1992H321.277Z" fill="black"/>
<path d="M366.388 22.5878V1.64275H465.07V22.5878H428.284V121.798H403.174V22.5878H366.388Z" fill="black"/>
<path d="M592.861 61.7205C592.861 74.8234 590.377 85.9707 585.41 95.1623C580.482 104.354 573.754 111.375 565.228 116.225C556.74 121.036 547.196 123.441 536.597 123.441C525.919 123.441 516.336 121.016 507.849 116.166C499.361 111.316 492.653 104.295 487.725 95.1036C482.797 85.912 480.332 74.7843 480.332 61.7205C480.332 48.6176 482.797 37.4704 487.725 28.2788C492.653 19.0872 499.361 12.086 507.849 7.27505C516.336 2.42502 525.919 0 536.597 0C547.196 0 556.74 2.42502 565.228 7.27505C573.754 12.086 580.482 19.0872 585.41 28.2788C590.377 37.4704 592.861 48.6176 592.861 61.7205ZM567.105 61.7205C567.105 53.233 565.834 46.0753 563.291 40.2474C560.788 34.4196 557.248 29.9998 552.672 26.9881C548.096 23.9764 542.737 22.4705 536.597 22.4705C530.456 22.4705 525.097 23.9764 520.521 26.9881C515.945 29.9998 512.386 34.4196 509.843 40.2474C507.34 46.0753 506.088 53.233 506.088 61.7205C506.088 70.2081 507.34 77.3658 509.843 83.1937C512.386 89.0215 515.945 93.4413 520.521 96.453C525.097 99.4647 530.456 100.971 536.597 100.971C542.737 100.971 548.096 99.4647 552.672 96.453C557.248 93.4413 560.788 89.0215 563.291 83.1937C565.834 77.3658 567.105 70.2081 567.105 61.7205Z" fill="black"/>
<path d="M28.2201 198.326L57.2616 289.616H58.3764L87.4765 198.326H115.638L74.2172 318.482H41.4795L0 198.326H28.2201Z" fill="black"/>
<path d="M136.709 318.482V198.326H217.673V219.271H162.113V247.902H213.507V268.847H162.113V297.536H217.908V318.482H136.709Z" fill="black"/>
<path d="M239.902 219.271V198.326H338.585V219.271H301.799V318.482H276.688V219.271H239.902Z" fill="black"/>
<path d="M365.834 259.477L586.119 259.477" stroke="black" stroke-width="20"/>
</svg>
